<mxfile host="65bd71144e">
    <diagram id="CsOMDI0QJgb5uzpZWYLh" name="Page-1">
        <mxGraphModel dx="853" dy="570" grid="1" gridSize="10" guides="1" tooltips="1" connect="1" arrows="1" fold="1" page="1" pageScale="1" pageWidth="850" pageHeight="1100" math="0" shadow="0">
            <root>
                <mxCell id="0"/>
                <mxCell id="1" parent="0"/>
                <mxCell id="3" value="&lt;pre style=&quot;--tw-border-spacing-x: 0; --tw-border-spacing-y: 0; --tw-translate-x: 0; --tw-translate-y: 0; --tw-rotate: 0; --tw-skew-x: 0; --tw-skew-y: 0; --tw-scale-x: 1; --tw-scale-y: 1; --tw-pan-x: ; --tw-pan-y: ; --tw-pinch-zoom: ; --tw-scroll-snap-strictness: proximity; --tw-gradient-from-position: ; --tw-gradient-via-position: ; --tw-gradient-to-position: ; --tw-ordinal: ; --tw-slashed-zero: ; --tw-numeric-figure: ; --tw-numeric-spacing: ; --tw-numeric-fraction: ; --tw-ring-inset: ; --tw-ring-offset-width: 0px; --tw-ring-offset-color: #fff; --tw-ring-color: rgb(59 130 246 / .5); --tw-ring-offset-shadow: 0 0 #0000; --tw-ring-shadow: 0 0 #0000; --tw-shadow: 0 0 #0000; --tw-shadow-colored: 0 0 #0000; --tw-blur: ; --tw-brightness: ; --tw-contrast: ; --tw-grayscale: ; --tw-hue-rotate: ; --tw-invert: ; --tw-saturate: ; --tw-sepia: ; --tw-drop-shadow: ; --tw-backdrop-blur: ; --tw-backdrop-brightness: ; --tw-backdrop-contrast: ; --tw-backdrop-grayscale: ; --tw-backdrop-hue-rotate: ; --tw-backdrop-invert: ; --tw-backdrop-opacity: ; --tw-backdrop-saturate: ; --tw-backdrop-sepia: ; padding: 0.8em; overflow: auto; line-height: 1.4; border: rgb(214, 214, 214); border-radius: 3px; margin-top: 0px; margin-bottom: 16px; color: rgb(51, 51, 51); background: rgb(245, 245, 245); font-family: Consolas, &amp;quot;Liberation Mono&amp;quot;, Menlo, Courier, monospace; text-align: left; word-spacing: 0px; word-break: normal; overflow-wrap: normal; tab-size: 8; hyphens: none; font-size: 0.75em; font-style: normal; font-variant-ligatures: normal; font-variant-caps: normal; font-weight: 400; letter-spacing: normal; orphans: 2; text-indent: 0px; text-transform: none; widows: 2; -webkit-text-stroke-width: 0px; text-decoration-thickness: initial; text-decoration-style: initial; text-decoration-color: initial;&quot; class=&quot;language-text&quot; data-source-line=&quot;4&quot; data-info=&quot;{data-source-line=&amp;quot;4&amp;quot;}&quot; data-role=&quot;codeBlock&quot;&gt;&lt;code style=&quot;--tw-border-spacing-x: 0; --tw-border-spacing-y: 0; --tw-translate-x: 0; --tw-translate-y: 0; --tw-rotate: 0; --tw-skew-x: 0; --tw-skew-y: 0; --tw-scale-x: 1; --tw-scale-y: 1; --tw-pan-x: ; --tw-pan-y: ; --tw-pinch-zoom: ; --tw-scroll-snap-strictness: proximity; --tw-gradient-from-position: ; --tw-gradient-via-position: ; --tw-gradient-to-position: ; --tw-ordinal: ; --tw-slashed-zero: ; --tw-numeric-figure: ; --tw-numeric-spacing: ; --tw-numeric-fraction: ; --tw-ring-inset: ; --tw-ring-offset-width: 0px; --tw-ring-offset-color: #fff; --tw-ring-color: rgb(59 130 246 / .5); --tw-ring-offset-shadow: 0 0 #0000; --tw-ring-shadow: 0 0 #0000; --tw-shadow: 0 0 #0000; --tw-shadow-colored: 0 0 #0000; --tw-blur: ; --tw-brightness: ; --tw-contrast: ; --tw-grayscale: ; --tw-hue-rotate: ; --tw-invert: ; --tw-saturate: ; --tw-sepia: ; --tw-drop-shadow: ; --tw-backdrop-blur: ; --tw-backdrop-brightness: ; --tw-backdrop-contrast: ; --tw-backdrop-grayscale: ; --tw-backdrop-hue-rotate: ; --tw-backdrop-invert: ; --tw-backdrop-opacity: ; --tw-backdrop-saturate: ; --tw-backdrop-sepia: ; font-family: Menlo, Monaco, Consolas, &amp;quot;Courier New&amp;quot;, monospace; color: rgb(0, 0, 0); background: 0px 0px transparent; padding: 0px; border-radius: 3px; font-size: 0.75em; margin: 0px; word-break: normal; border: 0px; display: inline; max-width: initial; overflow: initial; line-height: inherit; overflow-wrap: normal;&quot;&gt;ConstDef  → const Type ident Init OptNInits ;&#10;Type      → bool | int&#10;Init      → = Val&#10;Val       → false | true | OptSign number&#10;OptSign   → ε | + | - &#10;OptNInits → ε | , ident Init OptNInits &lt;/code&gt;&lt;/pre&gt;" style="text;whiteSpace=wrap;html=1;" vertex="1" parent="1">
                    <mxGeometry x="880" y="10" width="230" height="130" as="geometry"/>
                </mxCell>
                <mxCell id="5" value="(Z, ConstDef.const int max = 100;)&lt;font style=&quot;font-size: 24px;&quot;&gt;˫&lt;/font&gt;" style="text;html=1;align=left;verticalAlign=middle;resizable=0;points=[];autosize=1;strokeColor=none;fillColor=none;fontSize=18;fontFamily=Helvetica;" vertex="1" parent="1">
                    <mxGeometry x="40" y="160" width="310" height="40" as="geometry"/>
                </mxCell>
                <mxCell id="6" value="(Z, ; OptNInits Init ident Type&lt;font color=&quot;#ff6666&quot;&gt; const&lt;/font&gt;.const int max = 100;)&lt;font style=&quot;font-size: 24px;&quot;&gt;˫&lt;/font&gt;" style="text;html=1;align=left;verticalAlign=middle;resizable=0;points=[];autosize=1;strokeColor=none;fillColor=none;fontSize=18;fontFamily=Helvetica;" vertex="1" parent="1">
                    <mxGeometry x="40" y="180" width="480" height="40" as="geometry"/>
                </mxCell>
                <mxCell id="8" value="(Z, ; OptNInits Init ident &lt;font color=&quot;#ff6666&quot;&gt;Type&lt;/font&gt;.int max = 100;)&lt;font style=&quot;font-size: 24px;&quot;&gt;˫&lt;/font&gt;" style="text;html=1;align=left;verticalAlign=middle;resizable=0;points=[];autosize=1;strokeColor=none;fillColor=none;fontSize=18;fontFamily=Helvetica;" vertex="1" parent="1">
                    <mxGeometry x="40" y="200" width="390" height="40" as="geometry"/>
                </mxCell>
                <mxCell id="9" value="" style="endArrow=classic;html=1;fontFamily=Helvetica;fontSize=20;fontColor=#FF6666;strokeColor=#FF6666;" edge="1" parent="1">
                    <mxGeometry width="50" height="50" relative="1" as="geometry">
                        <mxPoint x="419" y="224" as="sourcePoint"/>
                        <mxPoint x="566" y="206" as="targetPoint"/>
                    </mxGeometry>
                </mxCell>
                <mxCell id="10" value="" style="endArrow=classic;html=1;fontFamily=Helvetica;fontSize=20;fontColor=#FF6666;strokeColor=#FF6666;" edge="1" parent="1">
                    <mxGeometry width="50" height="50" relative="1" as="geometry">
                        <mxPoint x="422" y="228" as="sourcePoint"/>
                        <mxPoint x="561" y="256" as="targetPoint"/>
                    </mxGeometry>
                </mxCell>
                <mxCell id="11" value="(Z, ; OptNInits Init ident &lt;font color=&quot;#ff6666&quot;&gt;bool&lt;/font&gt;.int max = 100;)&lt;span style=&quot;color: rgb(32, 33, 34); font-family: sans-serif; font-size: 28.8px; text-align: center;&quot;&gt;✟&lt;/span&gt;" style="text;html=1;align=left;verticalAlign=middle;resizable=0;points=[];autosize=1;strokeColor=none;fillColor=none;fontSize=18;fontFamily=Helvetica;" vertex="1" parent="1">
                    <mxGeometry x="570" y="175" width="390" height="50" as="geometry"/>
                </mxCell>
                <mxCell id="16" value="(Z, ; OptNInits Init ident &lt;font color=&quot;#ff6666&quot;&gt;int&lt;/font&gt;.int max = 100;)&lt;span style=&quot;font-size: 24px;&quot;&gt;˫&lt;/span&gt;" style="text;html=1;align=left;verticalAlign=middle;resizable=0;points=[];autosize=1;strokeColor=none;fillColor=none;fontSize=18;fontFamily=Helvetica;" vertex="1" parent="1">
                    <mxGeometry x="570" y="230" width="370" height="40" as="geometry"/>
                </mxCell>
                <mxCell id="17" value="(Z, ; OptNInits Init ident.max = 100;)&lt;span style=&quot;font-size: 24px;&quot;&gt;˫&lt;/span&gt;" style="text;html=1;align=left;verticalAlign=middle;resizable=0;points=[];autosize=1;strokeColor=none;fillColor=none;fontSize=18;fontFamily=Helvetica;" vertex="1" parent="1">
                    <mxGeometry x="570" y="250" width="320" height="40" as="geometry"/>
                </mxCell>
                <mxCell id="19" value="(Z, ; OptNInits &lt;font color=&quot;#ff6666&quot;&gt;Init&lt;/font&gt;.= 100;)&lt;span style=&quot;font-size: 24px;&quot;&gt;˫&lt;/span&gt;" style="text;html=1;align=left;verticalAlign=middle;resizable=0;points=[];autosize=1;strokeColor=none;fillColor=none;fontSize=18;fontFamily=Helvetica;" vertex="1" parent="1">
                    <mxGeometry x="570" y="270" width="240" height="40" as="geometry"/>
                </mxCell>
                <mxCell id="20" value="(Z, ; OptNInits &lt;font color=&quot;#ff6666&quot;&gt;Val =&lt;/font&gt;.= 100;)&lt;span style=&quot;font-size: 24px;&quot;&gt;˫&lt;/span&gt;" style="text;html=1;align=left;verticalAlign=middle;resizable=0;points=[];autosize=1;strokeColor=none;fillColor=none;fontSize=18;fontFamily=Helvetica;" vertex="1" parent="1">
                    <mxGeometry x="570" y="290" width="250" height="40" as="geometry"/>
                </mxCell>
                <mxCell id="21" value="(Z, ; OptNInits &lt;font color=&quot;#ff6666&quot;&gt;Val&lt;/font&gt;.100;)&lt;span style=&quot;font-size: 24px;&quot;&gt;˫&lt;/span&gt;" style="text;html=1;align=left;verticalAlign=middle;resizable=0;points=[];autosize=1;strokeColor=none;fillColor=none;fontSize=18;fontFamily=Helvetica;" vertex="1" parent="1">
                    <mxGeometry x="570" y="310" width="220" height="40" as="geometry"/>
                </mxCell>
                <mxCell id="23" value="" style="endArrow=classic;html=1;fontFamily=Helvetica;fontSize=20;fontColor=#FF6666;strokeColor=#FF6666;" edge="1" parent="1">
                    <mxGeometry width="50" height="50" relative="1" as="geometry">
                        <mxPoint x="780" y="330" as="sourcePoint"/>
                        <mxPoint x="960" y="310" as="targetPoint"/>
                    </mxGeometry>
                </mxCell>
                <mxCell id="24" value="(Z, ; OptNInits &lt;font color=&quot;#ff6666&quot;&gt;False&lt;/font&gt;.100;)&lt;span style=&quot;color: rgb(32, 33, 34); font-family: sans-serif; font-size: 28.8px; text-align: center;&quot;&gt;✟&lt;/span&gt;" style="text;html=1;align=left;verticalAlign=middle;resizable=0;points=[];autosize=1;strokeColor=none;fillColor=none;fontSize=18;fontFamily=Helvetica;" vertex="1" parent="1">
                    <mxGeometry x="970" y="275" width="250" height="50" as="geometry"/>
                </mxCell>
                <mxCell id="25" value="(Z, ; OptNInits &lt;font color=&quot;#ff6666&quot;&gt;True&lt;/font&gt;.100;)&lt;span style=&quot;color: rgb(32, 33, 34); font-family: sans-serif; font-size: 28.8px; text-align: center;&quot;&gt;✟&lt;/span&gt;" style="text;html=1;align=left;verticalAlign=middle;resizable=0;points=[];autosize=1;strokeColor=none;fillColor=none;fontSize=18;fontFamily=Helvetica;" vertex="1" parent="1">
                    <mxGeometry x="970" y="310" width="240" height="50" as="geometry"/>
                </mxCell>
                <mxCell id="26" value="" style="endArrow=classic;html=1;fontFamily=Helvetica;fontSize=20;fontColor=#FF6666;strokeColor=#FF6666;" edge="1" parent="1">
                    <mxGeometry width="50" height="50" relative="1" as="geometry">
                        <mxPoint x="785" y="336" as="sourcePoint"/>
                        <mxPoint x="960" y="340" as="targetPoint"/>
                    </mxGeometry>
                </mxCell>
                <mxCell id="27" value="(Z, ; OptNInits &lt;font color=&quot;#ff6666&quot;&gt;number OptSign&lt;/font&gt;.100;)&lt;span style=&quot;font-size: 24px;&quot;&gt;˫&lt;/span&gt;" style="text;html=1;align=left;verticalAlign=middle;resizable=0;points=[];autosize=1;strokeColor=none;fillColor=none;fontSize=18;fontFamily=Helvetica;" vertex="1" parent="1">
                    <mxGeometry x="970" y="355" width="330" height="40" as="geometry"/>
                </mxCell>
                <mxCell id="28" value="" style="endArrow=classic;html=1;fontFamily=Helvetica;fontSize=20;fontColor=#FF6666;strokeColor=#FF6666;" edge="1" parent="1">
                    <mxGeometry width="50" height="50" relative="1" as="geometry">
                        <mxPoint x="780" y="343" as="sourcePoint"/>
                        <mxPoint x="968" y="381" as="targetPoint"/>
                    </mxGeometry>
                </mxCell>
                <mxCell id="29" value="(Z, ; OptNInits number&lt;font color=&quot;#ff6666&quot;&gt; +&lt;/font&gt;.100;)&lt;span style=&quot;color: rgb(32, 33, 34); font-family: sans-serif; font-size: 28.8px; text-align: center;&quot;&gt;✟&lt;/span&gt;" style="text;html=1;align=left;verticalAlign=middle;resizable=0;points=[];autosize=1;strokeColor=none;fillColor=none;fontSize=18;fontFamily=Helvetica;" vertex="1" parent="1">
                    <mxGeometry x="1330" y="260" width="280" height="50" as="geometry"/>
                </mxCell>
                <mxCell id="30" value="" style="endArrow=classic;html=1;fontFamily=Helvetica;fontSize=20;fontColor=#FF6666;strokeColor=#FF6666;" edge="1" parent="1">
                    <mxGeometry width="50" height="50" relative="1" as="geometry">
                        <mxPoint x="1280" y="379" as="sourcePoint"/>
                        <mxPoint x="1327" y="292" as="targetPoint"/>
                    </mxGeometry>
                </mxCell>
                <mxCell id="31" value="(Z, ; OptNInits number&lt;font color=&quot;#ff6666&quot;&gt; -&lt;/font&gt;.100;)&lt;span style=&quot;color: rgb(32, 33, 34); font-family: sans-serif; font-size: 28.8px; text-align: center;&quot;&gt;✟&lt;/span&gt;" style="text;html=1;align=left;verticalAlign=middle;resizable=0;points=[];autosize=1;strokeColor=none;fillColor=none;fontSize=18;fontFamily=Helvetica;" vertex="1" parent="1">
                    <mxGeometry x="1330" y="290" width="280" height="50" as="geometry"/>
                </mxCell>
                <mxCell id="32" value="" style="endArrow=classic;html=1;fontFamily=Helvetica;fontSize=20;fontColor=#FF6666;strokeColor=#FF6666;" edge="1" parent="1">
                    <mxGeometry width="50" height="50" relative="1" as="geometry">
                        <mxPoint x="1284" y="382" as="sourcePoint"/>
                        <mxPoint x="1328" y="322" as="targetPoint"/>
                    </mxGeometry>
                </mxCell>
                <mxCell id="33" value="(Z, ; OptNInits number&lt;font color=&quot;#ff6666&quot;&gt;&amp;nbsp;&lt;/font&gt;&lt;span style=&quot;font-family: Menlo, Monaco, Consolas, &amp;quot;Courier New&amp;quot;, monospace; font-size: 0.75em;&quot;&gt;&lt;font style=&quot;&quot; color=&quot;#ff6666&quot;&gt;ε&lt;/font&gt;&lt;/span&gt;&lt;span style=&quot;background-color: initial;&quot;&gt;.100;)&lt;/span&gt;&lt;span style=&quot;font-size: 24px;&quot;&gt;˫&lt;/span&gt;" style="text;html=1;align=left;verticalAlign=middle;resizable=0;points=[];autosize=1;strokeColor=none;fillColor=none;fontSize=18;fontFamily=Helvetica;" vertex="1" parent="1">
                    <mxGeometry x="1330" y="355" width="270" height="40" as="geometry"/>
                </mxCell>
                <mxCell id="34" value="" style="endArrow=classic;html=1;fontFamily=Helvetica;fontSize=20;fontColor=#FF6666;strokeColor=#FF6666;" edge="1" parent="1">
                    <mxGeometry width="50" height="50" relative="1" as="geometry">
                        <mxPoint x="1288" y="386" as="sourcePoint"/>
                        <mxPoint x="1328" y="382" as="targetPoint"/>
                    </mxGeometry>
                </mxCell>
                <mxCell id="35" value="(Z, ; OptNInits number&lt;span style=&quot;background-color: initial;&quot;&gt;.100;)&lt;/span&gt;&lt;span style=&quot;font-size: 24px;&quot;&gt;˫&lt;/span&gt;" style="text;html=1;align=left;verticalAlign=middle;resizable=0;points=[];autosize=1;strokeColor=none;fillColor=none;fontSize=18;fontFamily=Helvetica;" vertex="1" parent="1">
                    <mxGeometry x="1330" y="380" width="260" height="40" as="geometry"/>
                </mxCell>
                <mxCell id="36" value="(Z, ; OptNInits&lt;span style=&quot;background-color: initial;&quot;&gt;.;)&lt;/span&gt;&lt;span style=&quot;font-size: 24px;&quot;&gt;˫&lt;/span&gt;" style="text;html=1;align=left;verticalAlign=middle;resizable=0;points=[];autosize=1;strokeColor=none;fillColor=none;fontSize=18;fontFamily=Helvetica;" vertex="1" parent="1">
                    <mxGeometry x="1330" y="400" width="160" height="40" as="geometry"/>
                </mxCell>
                <mxCell id="37" value="" style="endArrow=classic;html=1;fontFamily=Helvetica;fontSize=20;fontColor=#FF6666;strokeColor=#FF6666;" edge="1" parent="1">
                    <mxGeometry width="50" height="50" relative="1" as="geometry">
                        <mxPoint x="1478" y="424" as="sourcePoint"/>
                        <mxPoint x="1650" y="410" as="targetPoint"/>
                    </mxGeometry>
                </mxCell>
                <mxCell id="38" value="(Z, ; OptNInits Init ident &lt;font color=&quot;#ff6666&quot;&gt;,&lt;/font&gt;&lt;span style=&quot;background-color: initial;&quot;&gt;.;)&lt;/span&gt;&lt;span style=&quot;color: rgb(32, 33, 34); font-family: sans-serif; font-size: 28.8px; text-align: center;&quot;&gt;✟&lt;/span&gt;" style="text;html=1;align=left;verticalAlign=middle;resizable=0;points=[];autosize=1;strokeColor=none;fillColor=none;fontSize=18;fontFamily=Helvetica;" vertex="1" parent="1">
                    <mxGeometry x="1660" y="375" width="250" height="50" as="geometry"/>
                </mxCell>
                <mxCell id="39" value="" style="endArrow=classic;html=1;fontFamily=Helvetica;fontSize=20;fontColor=#FF6666;strokeColor=#FF6666;" edge="1" parent="1">
                    <mxGeometry width="50" height="50" relative="1" as="geometry">
                        <mxPoint x="1480" y="435" as="sourcePoint"/>
                        <mxPoint x="1641" y="437" as="targetPoint"/>
                    </mxGeometry>
                </mxCell>
                <mxCell id="40" value="(Z, ;&lt;span style=&quot;color: rgb(255, 102, 102); font-family: Menlo, Monaco, Consolas, &amp;quot;Courier New&amp;quot;, monospace; font-size: 13.5px;&quot;&gt;ε&lt;/span&gt;&lt;span style=&quot;background-color: initial;&quot;&gt;.;)&lt;/span&gt;&lt;span style=&quot;font-size: 24px;&quot;&gt;˫&lt;/span&gt;" style="text;html=1;align=left;verticalAlign=middle;resizable=0;points=[];autosize=1;strokeColor=none;fillColor=none;fontSize=18;fontFamily=Helvetica;" vertex="1" parent="1">
                    <mxGeometry x="1660" y="415" width="90" height="40" as="geometry"/>
                </mxCell>
                <mxCell id="41" value="(Z, ;&lt;span style=&quot;border-color: var(--border-color); background-color: initial;&quot;&gt;.;)&lt;/span&gt;&lt;span style=&quot;border-color: var(--border-color); font-size: 24px;&quot;&gt;˫&lt;/span&gt;" style="text;html=1;align=left;verticalAlign=middle;resizable=0;points=[];autosize=1;strokeColor=none;fillColor=none;fontSize=18;fontFamily=Helvetica;" vertex="1" parent="1">
                    <mxGeometry x="1660" y="440" width="80" height="40" as="geometry"/>
                </mxCell>
                <mxCell id="42" value="(Z,&amp;nbsp;&lt;span style=&quot;border-color: var(--border-color); background-color: initial;&quot;&gt;&lt;span style=&quot;color: rgb(255, 102, 102); font-family: Menlo, Monaco, Consolas, &amp;quot;Courier New&amp;quot;, monospace; font-size: 13.5px;&quot;&gt;ε&lt;/span&gt;.&lt;span style=&quot;color: rgb(255, 102, 102); font-family: Menlo, Monaco, Consolas, &amp;quot;Courier New&amp;quot;, monospace; font-size: 13.5px;&quot;&gt;ε&lt;/span&gt;)&lt;/span&gt;&lt;span style=&quot;border-color: var(--border-color); font-size: 24px;&quot;&gt;˫&lt;/span&gt;" style="text;html=1;align=left;verticalAlign=middle;resizable=0;points=[];autosize=1;strokeColor=none;fillColor=none;fontSize=18;fontFamily=Helvetica;" vertex="1" parent="1">
                    <mxGeometry x="1660" y="470" width="90" height="40" as="geometry"/>
                </mxCell>
                <mxCell id="43" value="Erkannt!" style="text;html=1;align=center;verticalAlign=middle;resizable=0;points=[];autosize=1;strokeColor=none;fillColor=none;fontSize=25;fontFamily=Helvetica;fontColor=#99FF99;" vertex="1" parent="1">
                    <mxGeometry x="1728" y="469" width="120" height="40" as="geometry"/>
                </mxCell>
            </root>
        </mxGraphModel>
    </diagram>
</mxfile>